<?xml version="1.0" encoding="UTF-8"?>
<!DOCTYPE svg PUBLIC "-//W3C//DTD SVG 1.1//EN" "http://www.w3.org/Graphics/SVG/1.1/DTD/svg11.dtd">
<svg xmlns="http://www.w3.org/2000/svg" xmlns:xlink="http://www.w3.org/1999/xlink" version="1.1" id="Слой_1" x="0px" y="0px" viewBox="0 0 128 128" enable-background="new 0 0 128 128" xml:space="preserve">
<g>
	<g>
		<g>
			<circle fill="#F7F7FB" cx="64" cy="64" r="55"/>
		</g>
		<g opacity="0.2">
			<g>
				<path fill="#0C0F13" d="M64,9c-2.3,0-4.6,0.2-6.9,0.4C84.3,12.8,105.2,36,105.2,64s-21,51.2-48.1,54.6c2.3,0.3,4.5,0.4,6.9,0.4      c30.4,0,55-24.6,55-55S94.4,9,64,9z"/>
			</g>
		</g>
		<g>
			<path fill="#454B54" d="M64,122C32,122,6,96,6,64S32,6,64,6s58,26,58,58S96,122,64,122z M64,12c-28.7,0-52,23.3-52,52     s23.3,52,52,52s52-23.3,52-52S92.7,12,64,12z"/>
		</g>
		<g>
			<g>
				<g>
					<path fill="#A7B1C6" d="M64,23.5c-21.5,0-39,17.4-39,39c0,7.9,2.4,15.3,6.4,21.4c7-10.6,18.9-17.5,32.5-17.5s25.6,7,32.5,17.5       c4.1-6.1,6.4-13.5,6.4-21.4C103,40.9,85.5,23.5,64,23.5z M64,59.8c-8.1,0-14.6-6.5-14.6-14.6c0-8.1,6.5-14.6,14.6-14.6       s14.6,6.5,14.6,14.6C78.6,53.2,72.1,59.8,64,59.8z"/>
				</g>
			</g>
		</g>
	</g>
	<g>
		<path fill="#454B54" d="M63.4,62.4c0,0-0.1,0-0.1,0c-9-0.4-16-7.7-16-16.7c0-9.2,7.5-16.8,16.8-16.8s16.8,7.5,16.8,16.8    c0,8.7-6.8,16-15.5,16.7c-0.4,0-0.7,0-1-0.1C64,62.4,63.7,62.4,63.4,62.4z M64,34.9c-5.9,0-10.8,4.8-10.8,10.8    c0,5.8,4.5,10.5,10.3,10.7c0.2,0,0.4,0,0.7,0.1c0.2-0.1,0.4-0.1,0.7-0.1c5.6-0.4,9.9-5.1,9.9-10.7C74.8,39.7,69.9,34.9,64,34.9z"/>
	</g>
	<g>
		<path fill="#454B54" d="M94.6,85.1c-1,0-1.9-0.5-2.5-1.3C85.9,74.3,75.3,68.6,64,68.6s-21.9,5.7-28.1,15.2    c-0.9,1.4-2.8,1.8-4.2,0.9c-1.4-0.9-1.8-2.8-0.9-4.2C38.3,69.3,50.6,62.6,64,62.6s25.7,6.7,33.1,17.8c0.9,1.4,0.5,3.2-0.9,4.2    C95.8,84.9,95.2,85.1,94.6,85.1z"/>
	</g>
</g>

	<metadata>
		<rdf:RDF xmlns:rdf="http://www.w3.org/1999/02/22-rdf-syntax-ns#" xmlns:rdfs="http://www.w3.org/2000/01/rdf-schema#" xmlns:dc="http://purl.org/dc/elements/1.1/">
			<rdf:Description about="https://iconscout.com/legal#licenses" dc:title="4 user avatar profile accout login dashboard" dc:description="4 user avatar profile accout login dashboard" dc:publisher="Iconscout" dc:date="2017-03-14" dc:format="image/svg+xml" dc:language="en">
				<dc:creator>
					<rdf:Bag>
						<rdf:li>Sergei Kokota</rdf:li>
					</rdf:Bag>
				</dc:creator>
			</rdf:Description>
		</rdf:RDF>
    </metadata></svg>
